<svg width="48" height="48" viewBox="0 0 48 48" fill="none" xmlns="http://www.w3.org/2000/svg">
<g id="money-bag 1" clip-path="url(#clip0_374_441)">
<g id="Page-1">
<g id="059---Money-Bag">
<path id="Shape" d="M43.3088 37.3225C44.257 36.0188 44.7709 34.4497 44.7776 32.8377C44.7879 32.6257 44.7134 32.4184 44.5707 32.2613C44.4281 32.1042 44.2288 32.0102 44.0168 32.0001C43.5772 31.9837 43.205 32.3217 43.1792 32.7609C43.1853 34.0385 42.7917 35.286 42.0536 36.3289C40.4928 38.3001 37.5312 38.4001 36.9528 38.4001C36.511 38.4001 36.1528 38.7583 36.1528 39.2001C36.1528 39.6419 36.511 40.0001 36.9528 40.0001C37.66 40.0001 41.2896 39.8713 43.3088 37.3225Z" fill="#003B5C"/>
<path id="Shape_2" d="M27.2011 27.2001C27.2011 26.7583 26.8429 26.4001 26.4011 26.4001C25.9592 26.4001 25.6011 26.7583 25.6011 27.2001C25.6011 28.9674 27.0338 30.4001 28.8011 30.4001V31.2001C28.8011 31.6419 29.1592 32.0001 29.6011 32.0001C30.0429 32.0001 30.4011 31.6419 30.4011 31.2001V30.4001C32.1684 30.4001 33.6011 28.9674 33.6011 27.2001C33.6011 25.4328 32.1684 24.0001 30.4011 24.0001V20.8001C31.2847 20.8001 32.0011 21.5164 32.0011 22.4001C32.0011 22.8419 32.3592 23.2001 32.8011 23.2001C33.2429 23.2001 33.6011 22.8419 33.6011 22.4001C33.6011 20.6328 32.1684 19.2001 30.4011 19.2001V18.4001C30.4011 17.9583 30.0429 17.6001 29.6011 17.6001C29.1592 17.6001 28.8011 17.9583 28.8011 18.4001V19.2001C27.0338 19.2001 25.6011 20.6328 25.6011 22.4001C25.6011 24.1674 27.0338 25.6001 28.8011 25.6001V28.8001C27.9174 28.8001 27.2011 28.0838 27.2011 27.2001ZM27.2011 22.4001C27.2011 21.5164 27.9174 20.8001 28.8011 20.8001V24.0001C27.9174 24.0001 27.2011 23.2838 27.2011 22.4001ZM30.4011 25.6001C31.2847 25.6001 32.0011 26.3164 32.0011 27.2001C32.0011 28.0838 31.2847 28.8001 30.4011 28.8001V25.6001Z" fill="#003B5C"/>
<path id="Shape_3" d="M47.3322 27.0169C45.361 18.6401 40.9786 13.7865 37.8138 11.2513C41.7826 11.5505 43.0602 13.2017 43.0978 13.2513C43.3484 13.6091 43.8397 13.6997 44.2015 13.4548C44.5632 13.2099 44.6616 12.7201 44.4226 12.3545C44.365 12.2681 43.2538 10.6809 40.0226 9.95451C40.8488 9.2753 41.3376 8.26942 41.361 7.20011C41.254 5.42726 40.0198 3.92393 38.3018 3.47371C38.3722 2.89583 38.408 2.31426 38.409 1.73211C38.4081 1.19579 38.1386 0.695571 37.6912 0.399858C37.2437 0.104145 36.6779 0.0522744 36.1842 0.261708C35.7803 0.444569 35.4052 0.685223 35.0706 0.976108C34.678 1.37957 34.1375 1.605 33.5746 1.60011C33.0125 1.60406 32.4732 1.37873 32.081 0.976108C30.6711 -0.326021 28.4973 -0.326021 27.0874 0.976108C26.6947 1.38044 26.1534 1.606 25.5898 1.60011C25.0278 1.60478 24.4884 1.37931 24.097 0.976108C23.7633 0.685848 23.3892 0.445483 22.9866 0.262508C22.4932 0.0544781 21.9284 0.107057 21.4819 0.402595C21.0354 0.698132 20.7663 1.19744 20.765 1.73291C20.765 3.72331 21.1586 7.27371 23.6506 9.65771C22.3409 10.4541 21.1178 11.3847 20.001 12.4345V6.40011C20.001 4.57611 17.421 3.20011 14.001 3.20011C10.581 3.20011 8.00098 4.57611 8.00098 6.40011V14.4601C5.19538 14.7401 3.20098 16.0001 3.20098 17.6001V37.9481C1.26818 38.4673 0.000976562 39.5201 0.000976562 40.8001V44.8001C0.000976562 46.6241 2.58098 48.0001 6.00098 48.0001C9.05938 48.0001 11.441 46.8985 11.9106 45.3601C13.2915 46.0913 14.8392 46.4497 16.401 46.4001C19.821 46.4001 22.401 45.0241 22.401 43.2001V32.8001C22.401 30.9761 19.821 29.6001 16.401 29.6001C16.0002 29.5998 15.5997 29.6199 15.201 29.6601V17.6001C15.201 15.8481 12.8194 14.5137 9.60098 14.4105V8.61531C10.962 9.30706 12.475 9.6457 14.001 9.60011C15.527 9.6457 17.04 9.30706 18.401 8.61531V14.0713C17.8738 14.6609 17.3442 15.3033 16.8218 16.0153C16.5826 16.3715 16.667 16.8531 17.0131 17.1066C17.3593 17.3602 17.8438 17.2956 18.1114 16.9601C18.6252 16.2645 19.1758 15.5969 19.761 14.9601C19.7674 14.9529 19.773 14.9457 19.7794 14.9393C21.3065 13.2421 23.0999 11.8049 25.089 10.6841C25.4811 10.8733 25.896 11.0112 26.3234 11.0945L24.261 13.0193C23.938 13.3211 23.9208 13.8275 24.2226 14.1505C24.5243 14.4735 25.0308 14.4907 25.3538 14.1889L28.5538 11.2041H28.809V13.6041C28.809 14.0459 29.1672 14.4041 29.609 14.4041C30.0508 14.4041 30.409 14.0459 30.409 13.6041V11.2001H30.6642L33.8642 14.1849C34.0731 14.3801 34.3703 14.449 34.6438 14.3657C34.9174 14.2824 35.1256 14.0594 35.1902 13.7809C35.2548 13.5024 35.1659 13.2105 34.957 13.0153L32.881 11.0825C33.3058 10.9984 33.718 10.86 34.1074 10.6705C36.2218 11.8145 43.1722 16.3345 45.7754 27.3833C46.9074 32.1929 46.4994 35.8721 44.5634 38.3161C42.0866 41.4401 37.789 41.6001 36.953 41.6001H25.601C25.1592 41.6001 24.801 41.9583 24.801 42.4001C24.801 42.8419 25.1592 43.2001 25.601 43.2001H36.953C38.313 43.2001 42.957 42.9193 45.817 39.3097C48.0714 36.4625 48.5818 32.3265 47.3322 27.0169ZM6.00098 39.2001C8.64658 39.2001 10.401 40.1601 10.401 40.8001C10.401 41.4401 8.64658 42.4001 6.00098 42.4001C3.35538 42.4001 1.60098 41.4401 1.60098 40.8001C1.60098 40.1601 3.35538 39.2001 6.00098 39.2001ZM6.00098 46.4001C3.35538 46.4001 1.60098 45.4401 1.60098 44.8001V43.0153C2.96196 43.7071 4.47496 44.0457 6.00098 44.0001C7.52699 44.0457 9.03999 43.7071 10.401 43.0153V44.8001C10.401 45.4401 8.64658 46.4001 6.00098 46.4001ZM16.401 44.8001C13.7554 44.8001 12.001 43.8401 12.001 43.2001V35.0153C13.362 35.7071 14.875 36.0457 16.401 36.0001C17.927 36.0457 19.44 35.7071 20.801 35.0153V43.2001C20.801 43.8401 19.0466 44.8001 16.401 44.8001ZM20.801 32.8001C20.801 33.4401 19.0466 34.4001 16.401 34.4001C13.7554 34.4001 12.001 33.4401 12.001 32.8001C12.001 32.1601 13.7554 31.2001 16.401 31.2001C19.0466 31.2001 20.801 32.1601 20.801 32.8001ZM10.401 32.8001V38.5849C9.03999 37.8932 7.52699 37.5545 6.00098 37.6001C5.60022 37.5998 5.19971 37.6199 4.80098 37.6601V19.8153C6.16196 20.5071 7.67496 20.8457 9.20098 20.8001C10.727 20.8457 12.24 20.5071 13.601 19.8153V29.9481C11.6682 30.4673 10.401 31.5201 10.401 32.8001ZM13.601 17.6001C13.601 18.2401 11.8466 19.2001 9.20098 19.2001C6.55538 19.2001 4.80098 18.2401 4.80098 17.6001C4.80098 16.9601 6.55538 16.0001 9.20098 16.0001C11.8466 16.0001 13.601 16.9601 13.601 17.6001ZM14.001 8.00011C11.3554 8.00011 9.60098 7.04011 9.60098 6.40011C9.60098 5.76011 11.3554 4.80011 14.001 4.80011C16.6466 4.80011 18.401 5.76011 18.401 6.40011C18.401 7.04011 16.6466 8.00011 14.001 8.00011ZM39.761 7.20011C39.761 8.51131 38.341 9.58731 36.561 9.60011C36.2632 9.59823 35.9666 9.56416 35.6762 9.49851C36.8373 8.25975 37.6443 6.73185 38.013 5.07451C38.9759 5.35824 39.6686 6.20048 39.761 7.20011ZM23.0954 2.22411C23.771 2.85718 24.6639 3.20657 25.5898 3.20011C26.5162 3.20706 27.4098 2.85763 28.0858 2.22411C28.4812 1.82486 29.0198 1.60024 29.5818 1.60024C30.1437 1.60024 30.6823 1.82486 31.0778 2.22411C31.7538 2.8581 32.6478 3.2076 33.5746 3.20011C34.5013 3.20727 35.3952 2.85782 36.0714 2.22411C36.2931 2.02817 36.5398 1.86246 36.805 1.73131C36.805 3.21691 36.529 6.88971 33.9514 8.90331C33.3715 9.33883 32.6685 9.5794 31.9434 9.59051C32.6359 8.401 33.1841 7.1331 33.5762 5.81371C33.6528 5.53819 33.5766 5.24273 33.3763 5.03863C33.1759 4.83453 32.882 4.7528 32.6051 4.82423C32.3281 4.89566 32.1104 5.10939 32.0338 5.38491C31.5907 6.88872 30.9095 8.31182 30.0162 9.60011H29.1938C28.3022 8.31069 27.6209 6.88792 27.1754 5.38491C27.0567 4.95921 26.6155 4.71028 26.1898 4.82891C25.7641 4.94754 25.5151 5.38881 25.6338 5.81451C26.0263 7.13504 26.5749 8.40401 27.2682 9.59451C26.5285 9.59071 25.8098 9.34861 25.2186 8.90411C22.641 6.89131 22.365 3.21851 22.365 1.73771C22.6301 1.86472 22.876 2.02847 23.0954 2.22411Z" fill="#003B5C"/>
<path id="Shape_4" d="M43.3088 37.3224C44.257 36.0187 44.7709 34.4497 44.7776 32.8376C44.7879 32.6257 44.7134 32.4183 44.5707 32.2612C44.4281 32.1041 44.2288 32.0102 44.0168 32C43.5775 31.9845 43.2059 32.322 43.1792 32.7608C43.1853 34.0384 42.7917 35.286 42.0536 36.3288C40.4928 38.3 37.5312 38.4 36.9528 38.4C36.511 38.4 36.1528 38.7582 36.1528 39.2C36.1528 39.6419 36.511 40 36.9528 40C37.66 40 41.2896 39.8712 43.3088 37.3224Z" fill="#003B5C"/>
</g>
</g>
</g>
<defs>
<clipPath id="clip0_374_441">
<rect width="48" height="48" fill="white" transform="translate(0.000976562)"/>
</clipPath>
</defs>
</svg>
