<svg width="52" height="52" viewBox="0 0 52 52" fill="none" xmlns="http://www.w3.org/2000/svg">
<path d="M36.3479 16.3592C37.3879 17.3524 35.9631 19.0112 34.8555 18.018L27.5599 11.6064C27.1347 11.215 26.5779 10.9978 25.9999 10.9978C25.422 10.9978 24.8652 11.215 24.4399 11.6064L11.2579 23.2648C10.98 23.4887 10.7598 23.7761 10.616 24.1027C10.4721 24.4294 10.4087 24.7858 10.4311 25.142V44.6472C10.4221 44.9669 10.4767 45.2852 10.5916 45.5837C10.7064 45.8822 10.8794 46.1549 11.1004 46.3861C11.3214 46.6173 11.5861 46.8023 11.8792 46.9305C12.1722 47.0587 12.4877 47.1274 12.8075 47.1328H43.6435C43.7144 47.1371 43.7854 47.1268 43.8521 47.1026C43.9188 47.0783 43.9799 47.0407 44.0316 46.992C44.0832 46.9433 44.1243 46.8845 44.1524 46.8193C44.1804 46.7541 44.1949 46.6838 44.1947 46.6128V37.5752C44.1947 36.89 44.4233 36.2243 44.8443 35.6836C45.2654 35.143 45.8547 34.7583 46.5191 34.5904C46.7947 34.4812 47.2367 34.2056 47.1795 33.8208L46.1395 22.6564C46.0875 22.2144 45.4791 21.996 45.0371 21.996H38.6723C38.2823 21.996 37.6323 22.2144 37.6323 22.6564L36.5715 33.8C36.5143 34.1848 36.9043 34.4604 37.2319 34.5696C37.8963 34.7375 38.4857 35.1222 38.9067 35.6628C39.3278 36.2035 39.5564 36.8692 39.5563 37.5544V44.1532C39.5563 45.5884 37.3463 45.5884 37.3463 44.1532V37.5752C37.3468 37.3731 37.2737 37.1778 37.1407 37.0256C37.0077 36.8735 36.8239 36.7749 36.6235 36.7484C35.2975 36.3584 34.1951 35.0896 34.3615 33.6284L35.4015 22.464C35.5107 20.8052 37.1123 19.7028 38.6619 19.7028H45.0267C45.8286 19.673 46.6131 19.9414 47.2287 20.4562C47.8443 20.9709 48.2473 21.6955 48.3599 22.49L49.3999 33.6544C49.4322 34.3621 49.219 35.0592 48.7963 35.6277C48.3737 36.1963 47.7677 36.6013 47.0807 36.7744C46.8918 36.8142 46.7226 36.9185 46.6021 37.0693C46.4817 37.2201 46.4174 37.4082 46.4203 37.6012V46.6388C46.4176 47.373 46.1236 48.0761 45.603 48.5938C45.0824 49.1114 44.3777 49.4014 43.6435 49.4H12.8075C12.1898 49.3953 11.5792 49.2683 11.0108 49.0264C10.4424 48.7846 9.92755 48.4326 9.49586 47.9907C9.06418 47.5489 8.72424 47.026 8.49564 46.4521C8.26704 45.8783 8.1543 45.2648 8.16393 44.6472V25.142C8.15323 24.4709 8.2913 23.8058 8.56822 23.1944C8.84514 22.583 9.25403 22.0406 9.76553 21.606L22.9735 9.94761C23.8036 9.18829 24.8879 8.76719 26.0129 8.76719C27.1379 8.76719 28.2222 9.18829 29.0523 9.94761L36.3479 16.3592ZM18.3871 25.7504H24.8559C25.6135 25.7651 26.3359 26.0729 26.8712 26.6092C27.4065 27.1455 27.713 27.8684 27.7263 28.626V34.2056C27.713 34.9627 27.4063 35.6851 26.8708 36.2205C26.3354 36.756 25.613 37.0627 24.8559 37.076H18.3871C17.6213 37.0735 16.8867 36.7721 16.3399 36.2359C15.793 35.6997 15.4771 34.9712 15.4595 34.2056V28.626C15.4629 28.245 15.5413 27.8683 15.6903 27.5176C15.8393 27.1668 16.0559 26.8489 16.3277 26.5819C16.5996 26.3148 16.9214 26.104 17.2747 25.9613C17.6281 25.8186 18.0061 25.747 18.3871 25.7504ZM24.8559 27.9604H18.3871C18.2119 27.9631 18.0447 28.0343 17.9213 28.1587C17.7979 28.2831 17.7281 28.4508 17.7267 28.626V34.2056C17.7281 34.3803 17.7981 34.5475 17.9217 34.6711C18.0452 34.7946 18.2124 34.8647 18.3871 34.866H24.8559C25.0271 34.8539 25.1881 34.7805 25.3094 34.6591C25.4308 34.5378 25.5042 34.3768 25.5163 34.2056V28.626C25.5044 28.4543 25.4311 28.2926 25.3099 28.1704C25.1886 28.0483 25.0275 27.9737 24.8559 27.9604ZM41.8755 8.78801C42.4836 8.76741 43.0895 8.86939 43.6573 9.08786C44.2252 9.30633 44.7432 9.63683 45.1806 10.0597C45.618 10.4825 45.9659 10.9891 46.2035 11.5492C46.441 12.1093 46.5635 12.7114 46.5635 13.3198C46.5635 13.9282 46.441 14.5304 46.2035 15.0905C45.9659 15.6505 45.618 16.1571 45.1806 16.5799C44.7432 17.0028 44.2252 17.3333 43.6573 17.5518C43.0895 17.7702 42.4836 17.8722 41.8755 17.8516C40.7002 17.8118 39.5863 17.3169 38.7689 16.4714C37.9516 15.6258 37.4947 14.4958 37.4947 13.3198C37.4947 12.1438 37.9516 11.0138 38.7689 10.1683C39.5863 9.32273 40.7002 8.82783 41.8755 8.78801ZM41.8755 10.998C41.4156 10.998 40.966 11.1345 40.5836 11.3901C40.2013 11.6458 39.9033 12.0091 39.7276 12.4341C39.5518 12.8591 39.5061 13.3268 39.5962 13.7778C39.6863 14.2288 39.9082 14.643 40.2338 14.9679C40.5594 15.2927 40.974 15.5137 41.4253 15.6028C41.8765 15.6919 42.344 15.6451 42.7686 15.4684C43.1933 15.2917 43.5559 14.9929 43.8107 14.61C44.0655 14.2271 44.201 13.7772 44.1999 13.3172C44.1958 12.7034 43.9502 12.1159 43.5161 11.6818C43.0821 11.2478 42.4946 11.0021 41.8807 10.998H41.8755ZM35.9631 9.72921C37.0655 10.6652 35.5731 12.3292 34.4707 11.3828L27.6171 5.41841C27.168 5.04268 26.6011 4.83681 26.0155 4.83681C25.43 4.83681 24.863 5.04268 24.4139 5.41841L16.7283 12.1056C16.561 12.2454 16.3572 12.3344 16.1409 12.3621C15.9247 12.3899 15.705 12.3553 15.5077 12.2625C15.3105 12.1696 15.1439 12.0222 15.0275 11.8378C14.9112 11.6534 14.85 11.4396 14.8511 11.2216V9.01161C14.8518 8.95338 14.8409 8.89559 14.8189 8.84165C14.7969 8.78771 14.7644 8.7387 14.7232 8.69752C14.682 8.65634 14.633 8.6238 14.5791 8.60184C14.5252 8.57987 14.4674 8.56892 14.4091 8.56961H10.8731C10.8149 8.56892 10.7571 8.57987 10.7032 8.60184C10.6492 8.6238 10.6002 8.65634 10.559 8.69752C10.5178 8.7387 10.4853 8.78771 10.4633 8.84165C10.4414 8.89559 10.4304 8.95338 10.4311 9.01161V17.0768C10.3982 17.416 10.2407 17.7309 9.98912 17.9608L4.46153 22.7136C4.35196 22.8173 4.22212 22.8971 4.08018 22.9481C3.93824 22.999 3.78728 23.0201 3.63681 23.0098C3.48634 22.9995 3.33963 22.9582 3.20592 22.8884C3.07221 22.8187 2.95441 22.722 2.85993 22.6044C2.67185 22.3812 2.57806 22.0935 2.59845 21.8023C2.61883 21.5111 2.75178 21.2393 2.96913 21.0444L7.99753 16.6816C8.0498 16.6434 8.09219 16.5933 8.12114 16.5354C8.15009 16.4775 8.16476 16.4135 8.16393 16.3488V8.34601C8.172 7.82081 8.38459 7.31946 8.75649 6.94853C9.1284 6.57759 9.6303 6.36632 10.1555 6.35961H15.0799C15.5472 6.34767 16.0035 6.50217 16.3673 6.79555C16.7312 7.08892 16.9789 7.50206 17.0663 7.96122C17.0683 8.03897 17.0967 8.11373 17.1468 8.17325C17.1969 8.23277 17.2657 8.27352 17.3419 8.28881C17.413 8.32289 17.4922 8.3361 17.5705 8.32689C17.6487 8.31769 17.7227 8.28645 17.7839 8.23681L22.9267 3.75961C23.7732 3.01273 24.8632 2.60059 25.9921 2.60059C27.121 2.60059 28.211 3.01273 29.0575 3.75961L35.9631 9.72921Z" fill="#003B5C"/>
</svg>
