<svg width="52" height="52" viewBox="0 0 52 52" fill="none" xmlns="http://www.w3.org/2000/svg">
<g clip-path="url(#clip0_609_259)">
<path d="M46.9174 40.4326C47.9445 39.0202 48.5012 37.3204 48.5086 35.574C48.5196 35.3444 48.439 35.1198 48.2844 34.9496C48.1299 34.7794 47.914 34.6776 47.6844 34.6666C47.2081 34.6488 46.8049 35.015 46.777 35.4908C46.7835 36.8749 46.3571 38.2264 45.5576 39.3562C43.8667 41.4916 40.6583 41.6 40.0317 41.6C39.5531 41.6 39.165 41.988 39.165 42.4666C39.165 42.9453 39.5531 43.3333 40.0317 43.3333C40.7978 43.3333 44.7299 43.1938 46.9174 40.4326Z" fill="#003B5C"/>
<path d="M29.4667 29.4667C29.4667 28.988 29.0787 28.6 28.6001 28.6C28.1214 28.6 27.7334 28.988 27.7334 29.4667C27.7334 31.3812 29.2855 32.9333 31.2001 32.9333V33.8C31.2001 34.2786 31.5881 34.6667 32.0667 34.6667C32.5454 34.6667 32.9334 34.2786 32.9334 33.8V32.9333C34.848 32.9333 36.4001 31.3812 36.4001 29.4667C36.4001 27.5521 34.848 26 32.9334 26V22.5333C33.8907 22.5333 34.6667 23.3094 34.6667 24.2667C34.6667 24.7453 35.0548 25.1333 35.5334 25.1333C36.012 25.1333 36.4001 24.7453 36.4001 24.2667C36.4001 22.3521 34.848 20.8 32.9334 20.8V19.9333C32.9334 19.4547 32.5454 19.0667 32.0667 19.0667C31.5881 19.0667 31.2001 19.4547 31.2001 19.9333V20.8C29.2855 20.8 27.7334 22.3521 27.7334 24.2667C27.7334 26.1812 29.2855 27.7333 31.2001 27.7333V31.2C30.2428 31.2 29.4667 30.4239 29.4667 29.4667ZM29.4667 24.2667C29.4667 23.3094 30.2428 22.5333 31.2001 22.5333V26C30.2428 26 29.4667 25.2239 29.4667 24.2667ZM32.9334 27.7333C33.8907 27.7333 34.6667 28.5094 34.6667 29.4667C34.6667 30.4239 33.8907 31.2 32.9334 31.2V27.7333Z" fill="#003B5C"/>
<path d="M51.2755 29.2681C49.14 20.1933 44.3924 14.9352 40.9639 12.1887C45.2634 12.5128 46.6475 14.3016 46.6882 14.3554C46.9597 14.743 47.492 14.8411 47.8839 14.5758C48.2758 14.3105 48.3824 13.7799 48.1234 13.3838C48.061 13.2902 46.8572 11.5708 43.3567 10.7838C44.2518 10.048 44.7813 8.95833 44.8067 7.79991C44.6908 5.87933 43.3538 4.25072 41.4925 3.76298C41.5688 3.13695 41.6076 2.50691 41.6087 1.87625C41.6077 1.29523 41.3158 0.753331 40.8311 0.432976C40.3463 0.11262 39.7334 0.0564271 39.1985 0.283314C38.7609 0.481413 38.3545 0.742122 37.9921 1.05725C37.5667 1.49433 36.9812 1.73855 36.3714 1.73325C35.7625 1.73753 35.1782 1.49342 34.7533 1.05725C33.226 -0.353392 30.871 -0.353392 29.3436 1.05725C28.9182 1.49528 28.3318 1.73963 27.7212 1.73325C27.1124 1.73831 26.5281 1.49405 26.104 1.05725C25.7425 0.742798 25.3373 0.482403 24.9011 0.284181C24.3665 0.0588145 23.7547 0.115775 23.271 0.435941C22.7873 0.756106 22.4958 1.29703 22.4943 1.87711C22.4943 4.03338 22.9207 7.87965 25.6204 10.4623C24.2016 11.325 22.8765 12.3332 21.6667 13.4705V6.93325C21.6667 4.95725 18.8717 3.46658 15.1667 3.46658C11.4617 3.46658 8.66667 4.95725 8.66667 6.93325V15.6649C5.62727 15.9682 3.46667 17.3332 3.46667 19.0666V41.1103C1.3728 41.6727 0 42.8133 0 44.1999V48.5333C0 50.5093 2.795 51.9999 6.5 51.9999C9.81327 51.9999 12.3933 50.8065 12.9021 49.1399C14.3981 49.932 16.0748 50.3203 17.7667 50.2666C21.4717 50.2666 24.2667 48.7759 24.2667 46.7999V35.5333C24.2667 33.5573 21.4717 32.0666 17.7667 32.0666C17.3325 32.0663 16.8986 32.088 16.4667 32.1316V19.0666C16.4667 17.1686 13.8866 15.723 10.4 15.6112V9.33305C11.8744 10.0824 13.5135 10.4493 15.1667 10.3999C16.8198 10.4493 18.4589 10.0824 19.9333 9.33305V15.2437C19.3622 15.8824 18.7885 16.5784 18.2225 17.3497C17.9634 17.7356 18.0548 18.2573 18.4298 18.532C18.8048 18.8067 19.3298 18.7367 19.6196 18.3732C20.1762 17.6197 20.7728 16.8964 21.4067 16.2066C21.4136 16.1988 21.4197 16.191 21.4266 16.184C23.081 14.3454 25.0238 12.7884 27.1787 11.5742C27.6035 11.7792 28.053 11.9286 28.5159 12.0188L26.2817 14.104C25.9318 14.431 25.9132 14.9796 26.2401 15.3295C26.567 15.6794 27.1156 15.698 27.4655 15.3711L30.9322 12.1376H31.2087V14.7376C31.2087 15.2162 31.5967 15.6042 32.0753 15.6042C32.554 15.6042 32.942 15.2162 32.942 14.7376V12.1332H33.2185L36.6851 15.3668C36.9115 15.5783 37.2334 15.6529 37.5298 15.5626C37.8261 15.4724 38.0517 15.2309 38.1217 14.9291C38.1917 14.6274 38.0953 14.3112 37.869 14.0997L35.62 12.0058C36.0802 11.9148 36.5267 11.7648 36.9486 11.5595C39.2392 12.7988 46.7688 17.6955 49.5889 29.6651C50.8153 34.8755 50.3733 38.8613 48.2759 41.5089C45.5927 44.8933 40.937 45.0666 40.0313 45.0666H27.7333C27.2547 45.0666 26.8667 45.4546 26.8667 45.9333C26.8667 46.4119 27.2547 46.7999 27.7333 46.7999H40.0313C41.5047 46.7999 46.5357 46.4957 49.634 42.5853C52.0763 39.5009 52.6292 35.0202 51.2755 29.2681ZM6.5 42.4666C9.36607 42.4666 11.2667 43.5066 11.2667 44.1999C11.2667 44.8933 9.36607 45.9333 6.5 45.9333C3.63393 45.9333 1.73333 44.8933 1.73333 44.1999C1.73333 43.5066 3.63393 42.4666 6.5 42.4666ZM6.5 50.2666C3.63393 50.2666 1.73333 49.2266 1.73333 48.5333V46.5997C3.20773 47.3491 4.84682 47.716 6.5 47.6666C8.15318 47.716 9.79227 47.3491 11.2667 46.5997V48.5333C11.2667 49.2266 9.36607 50.2666 6.5 50.2666ZM17.7667 48.5333C14.9006 48.5333 13 47.4933 13 46.7999V37.9331C14.4744 38.6824 16.1135 39.0493 17.7667 38.9999C19.4198 39.0493 21.0589 38.6824 22.5333 37.9331V46.7999C22.5333 47.4933 20.6327 48.5333 17.7667 48.5333ZM22.5333 35.5333C22.5333 36.2266 20.6327 37.2666 17.7667 37.2666C14.9006 37.2666 13 36.2266 13 35.5333C13 34.8399 14.9006 33.7999 17.7667 33.7999C20.6327 33.7999 22.5333 34.8399 22.5333 35.5333ZM11.2667 35.5333V41.8001C9.79227 41.0507 8.15318 40.6839 6.5 40.7333C6.06585 40.733 5.63196 40.7547 5.2 40.7983V21.4664C6.6744 22.2158 8.31349 22.5826 9.96667 22.5332C11.6198 22.5826 13.2589 22.2158 14.7333 21.4664V32.4436C12.6395 33.0061 11.2667 34.1466 11.2667 35.5333ZM14.7333 19.0666C14.7333 19.7599 12.8327 20.7999 9.96667 20.7999C7.1006 20.7999 5.2 19.7599 5.2 19.0666C5.2 18.3732 7.1006 17.3332 9.96667 17.3332C12.8327 17.3332 14.7333 18.3732 14.7333 19.0666ZM15.1667 8.66658C12.3006 8.66658 10.4 7.62658 10.4 6.93325C10.4 6.23991 12.3006 5.19991 15.1667 5.19991C18.0327 5.19991 19.9333 6.23991 19.9333 6.93325C19.9333 7.62658 18.0327 8.66658 15.1667 8.66658ZM43.0733 7.79991C43.0733 9.22038 41.535 10.386 39.6067 10.3999C39.2841 10.3979 38.9627 10.361 38.6481 10.2898C39.906 8.94786 40.7803 7.29264 41.1797 5.49718C42.2229 5.80456 42.9732 6.71698 43.0733 7.79991ZM25.0189 2.40925C25.7508 3.09507 26.7182 3.47358 27.7212 3.46658C28.7248 3.47411 29.6929 3.09556 30.4252 2.40925C30.8536 1.97673 31.4371 1.73339 32.0459 1.73339C32.6546 1.73339 33.2381 1.97673 33.6665 2.40925C34.3989 3.09608 35.3674 3.47469 36.3714 3.46658C37.3753 3.47434 38.3438 3.09577 39.0763 2.40925C39.3164 2.19698 39.5837 2.01746 39.871 1.87538C39.871 3.48478 39.572 7.46365 36.7796 9.64505C36.1514 10.1169 35.3898 10.3775 34.6043 10.3895C35.3545 9.10088 35.9483 7.72733 36.3731 6.29798C36.4561 5.9995 36.3736 5.67942 36.1566 5.45831C35.9395 5.23721 35.6211 5.14867 35.3211 5.22605C35.0211 5.30342 34.7852 5.53496 34.7022 5.83345C34.2222 7.46258 33.4843 9.00427 32.5165 10.3999H31.6255C30.6597 9.00304 29.9216 7.46171 29.4389 5.83345C29.3104 5.37227 28.8324 5.1026 28.3712 5.23111C27.91 5.35963 27.6404 5.83767 27.7689 6.29885C28.1941 7.72942 28.7885 9.10414 29.5395 10.3938C28.7382 10.3897 27.9595 10.1275 27.3191 9.64592C24.5267 7.46538 24.2277 3.48651 24.2277 1.88231C24.5149 2.01991 24.7812 2.1973 25.0189 2.40925Z" fill="#003B5C"/>
<path d="M46.9174 40.4325C47.9445 39.0201 48.5012 37.3203 48.5086 35.574C48.5196 35.3443 48.439 35.1197 48.2844 34.9495C48.1299 34.7794 47.914 34.6776 47.6844 34.6666C47.2084 34.6497 46.8058 35.0154 46.777 35.4908C46.7835 36.8748 46.3571 38.2263 45.5576 39.3561C43.8667 41.4916 40.6583 41.5999 40.0317 41.5999C39.5531 41.5999 39.165 41.9879 39.165 42.4666C39.165 42.9452 39.5531 43.3332 40.0317 43.3332C40.7978 43.3332 44.7299 43.1937 46.9174 40.4325Z" fill="#003B5C"/>
</g>
<defs>
<clipPath id="clip0_609_259">
<rect width="52" height="52" fill="white"/>
</clipPath>
</defs>
</svg>
