<svg width="66" height="66" viewBox="0 0 66 66" fill="none" xmlns="http://www.w3.org/2000/svg">
<path d="M18.4253 49.5002H11.4128C7.48031 49.5002 5.50024 47.5202 5.50024 43.5877V11.4128C5.50024 7.48031 7.48031 5.50024 11.4128 5.50024H23.2378C27.1703 5.50024 29.1502 7.48031 29.1502 11.4128V16.5002" stroke="#003B5C" stroke-width="1.5" stroke-miterlimit="10" stroke-linecap="round" stroke-linejoin="round"/>
<path d="M47.7675 23.155V53.845C47.7675 58.2725 45.5676 60.5 41.1401 60.5H25.08C20.6525 60.5 18.425 58.2725 18.425 53.845V23.155C18.425 18.7275 20.6525 16.5 25.08 16.5H41.1401C45.5676 16.5 47.7675 18.7275 47.7675 23.155Z" stroke="#003B5C" stroke-width="1.5" stroke-miterlimit="10" stroke-linecap="round" stroke-linejoin="round"/>
<path d="M36.8503 16.5002V11.4128C36.8503 7.48031 38.8302 5.50024 42.7627 5.50024H54.5877C58.5202 5.50024 60.5003 7.48031 60.5003 11.4128V43.5877C60.5003 47.5202 58.5202 49.5002 54.5877 49.5002H47.7678" stroke="#003B5C" stroke-width="1.5" stroke-miterlimit="10" stroke-linecap="round" stroke-linejoin="round"/>
<path d="M27.4998 30.2502H38.4998" stroke="#003B5C" stroke-width="1.5" stroke-miterlimit="10" stroke-linecap="round" stroke-linejoin="round"/>
<path d="M27.4998 38.5002H38.4998" stroke="#003B5C" stroke-width="1.5" stroke-miterlimit="10" stroke-linecap="round" stroke-linejoin="round"/>
<path d="M33 60.4998V52.2498" stroke="#003B5C" stroke-width="1.5" stroke-miterlimit="10" stroke-linecap="round" stroke-linejoin="round"/>
</svg>
