<svg width="66" height="66" viewBox="0 0 66 66" fill="none" xmlns="http://www.w3.org/2000/svg">
<path d="M35.7502 60.5002H13.7502C8.25024 60.5002 5.50024 57.7502 5.50024 52.2502V30.2502C5.50024 24.7502 8.25024 22.0002 13.7502 22.0002H27.5002V52.2502C27.5002 57.7502 30.2502 60.5002 35.7502 60.5002Z" stroke="#003B5C" stroke-width="1.5" stroke-miterlimit="10" stroke-linecap="round" stroke-linejoin="round"/>
<path d="M27.8027 10.9998C27.5827 11.8248 27.5002 12.7323 27.5002 13.7498V21.9998H13.7502V16.4998C13.7502 13.4748 16.2252 10.9998 19.2502 10.9998H27.8027Z" stroke="#003B5C" stroke-width="1.5" stroke-miterlimit="10" stroke-linecap="round" stroke-linejoin="round"/>
<path d="M38.5002 22.0002V35.7502" stroke="#003B5C" stroke-width="1.5" stroke-miterlimit="10" stroke-linecap="round" stroke-linejoin="round"/>
<path d="M49.5 22.0002V35.7502" stroke="#003B5C" stroke-width="1.5" stroke-miterlimit="10" stroke-linecap="round" stroke-linejoin="round"/>
<path d="M46.7502 46.7502H41.2502C39.7377 46.7502 38.5002 47.9877 38.5002 49.5002V60.5002H49.5002V49.5002C49.5002 47.9877 48.2627 46.7502 46.7502 46.7502Z" stroke="#003B5C" stroke-width="1.5" stroke-miterlimit="10" stroke-linecap="round" stroke-linejoin="round"/>
<path d="M16.5 35.7498V46.7498" stroke="#003B5C" stroke-width="1.5" stroke-miterlimit="10" stroke-linecap="round" stroke-linejoin="round"/>
<path d="M27.4998 52.2502V13.7502C27.4998 8.25024 30.2498 5.50024 35.7498 5.50024H52.2498C57.7498 5.50024 60.4998 8.25024 60.4998 13.7502V52.2502C60.4998 57.7502 57.7498 60.5002 52.2498 60.5002H35.7498C30.2498 60.5002 27.4998 57.7502 27.4998 52.2502Z" stroke="#003B5C" stroke-width="1.5" stroke-miterlimit="10" stroke-linecap="round" stroke-linejoin="round"/>
</svg>
