<svg width="32" height="32" viewBox="0 0 32 32" fill="none" xmlns="http://www.w3.org/2000/svg">
<path d="M29.3337 15.3332V20.6665C29.3337 25.3332 26.667 27.3332 22.667 27.3332H9.33366C5.33366 27.3332 2.66699 25.3332 2.66699 20.6665V11.3332C2.66699 6.6665 5.33366 4.6665 9.33366 4.6665H16.0003" stroke="#003B5C" stroke-width="1.5" stroke-miterlimit="10" stroke-linecap="round" stroke-linejoin="round"/>
<path d="M9.33301 12L13.5063 15.3333C14.8797 16.4267 17.133 16.4267 18.5063 15.3333" stroke="#003B5C" stroke-width="1.5" stroke-miterlimit="10" stroke-linecap="round" stroke-linejoin="round"/>
<path d="M25.9743 3.75992L26.3476 4.51991C26.5343 4.89324 27.0009 5.23992 27.4143 5.31992L27.9209 5.39992C29.4409 5.65325 29.8009 6.77325 28.7076 7.87992L28.2409 8.34657C27.9343 8.66657 27.7609 9.27991 27.8543 9.70658L27.9209 9.98659C28.3343 11.8266 27.3609 12.5332 25.7609 11.5732L25.4143 11.3732C25.0009 11.1332 24.3343 11.1332 23.9209 11.3732L23.5743 11.5732C21.9609 12.5466 20.9876 11.8266 21.4143 9.98659L21.4809 9.70658C21.5742 9.27991 21.4009 8.66657 21.0943 8.34657L20.6276 7.87992C19.5343 6.77325 19.8943 5.65325 21.4143 5.39992L21.9209 5.31992C22.3209 5.25325 22.8009 4.89324 22.9876 4.51991L23.3609 3.75992C24.0809 2.30659 25.2543 2.30659 25.9743 3.75992Z" stroke="#003B5C" stroke-width="1.5" stroke-linecap="round" stroke-linejoin="round"/>
</svg>
